HIERARCHY
ROOT Hips
{
  OFFSET 0.0 0.0 0.0
  CHANNELS 6 XPOSITION YPOSITION ZPOSITION ZROTATION XROTATION YROTATION 
  JOINT LeftUpLeg
  {
    OFFSET 0.08945800000000001 -0.0866707 0.0010165200000000001
    CHANNELS 3 ZROTATION XROTATION YROTATION 
    JOINT LeftLeg
    {
      OFFSET 0.0 -0.444227 0.013727000000000001
      CHANNELS 3 ZROTATION XROTATION YROTATION 
      JOINT LeftFoot
      {
        OFFSET -0.0025354900000000005 -0.42092399999999996 -0.014605900000000002
        CHANNELS 3 ZROTATION XROTATION YROTATION 
        End Site
        {
          OFFSET -0.0004 -0.0441509 0.08499100000000001
        }
      }
    }
  }
  JOINT Spine
  {
    OFFSET 0.0 0.118905 0.0
    CHANNELS 3 ZROTATION XROTATION YROTATION 
    JOINT Spine1
    {
      OFFSET 0.0 0.25657399999999997 0.00127663
      CHANNELS 3 ZROTATION XROTATION YROTATION 
      End Site
      {
        OFFSET -0.0029 0.21508359999999999 0.02525291
      }
      JOINT RightArm
      {
        OFFSET -0.162727 -0.05365632 0.0010212299999999997
        CHANNELS 3 ZROTATION XROTATION YROTATION 
        JOINT RightForeArm
        {
          OFFSET -0.26364 0.00099144 -0.0142434
          CHANNELS 3 ZROTATION XROTATION YROTATION 
          End Site
          {
            OFFSET -0.220324 0.0008536199999999999 0.010221599999999999
          }
        }
      }
      JOINT LeftArm
      {
        OFFSET 0.162727 -0.053656319900000006 0.0010212299999999997
        CHANNELS 3 ZROTATION XROTATION YROTATION 
        JOINT LeftForeArm
        {
          OFFSET 0.26259699999999997 0.00099144 -0.0142434
          CHANNELS 3 ZROTATION XROTATION YROTATION 
          End Site
          {
            OFFSET 0.220902 0.0008536199999999999 0.010221599999999999
          }
        }
      }
    }
  }
  JOINT RightUpLeg
  {
    OFFSET -0.08945800000000001 -0.0866707 0.0010165200000000001
    CHANNELS 3 ZROTATION XROTATION YROTATION 
    JOINT RightLeg
    {
      OFFSET 0.0 -0.444227 0.013727000000000001
      CHANNELS 3 ZROTATION XROTATION YROTATION 
      JOINT RightFoot
      {
        OFFSET 0.0025354900000000005 -0.42092399999999996 -0.014605900000000002
        CHANNELS 3 ZROTATION XROTATION YROTATION 
        End Site
        {
          OFFSET 0.0004 -0.0441509 0.08499100000000001
        }
      }
    }
  }
}
MOTION
Frames: 13
Frame Time: 0.033333
1.89239 0.9862479093824383 0.029842200000000003 -3.3411998355930654 -0.06725049613519511 -86.45900021231178 0.4127330169790909 -2.6210799713505155 0.28504300397167276 1.7621199703630608 14.355599389979005 13.473699878498945 -4.269972587469396 -34.678769208744 -0.12314346823793007 0.558041983198233 10.515299915929948 -0.255461001109098 0.5269310051373538 -2.293979864121078 -0.1825729975670639 76.19138856889587 -12.418337467762656 4.135415299499206 6.695529856091834 29.68670005759757 12.571899757098405 -73.19495042906543 -2.1728236207458647 -2.6972914355529296 -2.7012798391413937 31.736501299220926 -17.82529962985234 -0.06817239825037494 0.03942970157281175 -4.445730003399926 1.297769986526567 12.677199929758846 -15.296599674573539 1.9923399273530973 -36.779376812508495 -0.11363825949186562 
1.89207 0.9861979093824382 0.0294881 -3.32997996922085 -0.027469198235159736 -86.46589870337348 0.4536329901419206 -2.6572599102708963 0.22450802453362823 1.8007800150040965 14.438400065739778 13.520399589401615 -4.280400578784713 -34.7015683801935 -0.1231778993282578 0.6359330336062352 10.391699958935751 -0.26319498972494737 0.4763969967893682 -2.195780099989689 -0.17599500512802593 76.26872680086794 -11.948829410442332 4.167255933862513 6.497640065929524 29.381400846981755 12.946399883063851 -73.13832816084603 -3.0112891055201674 -2.7798953164882407 -3.0872098597960322 32.521802299043145 -17.182700064811907 -0.014266599317030455 0.0421860997845751 -4.434849938938918 1.3261500628582046 12.681899953681462 -15.30479931667214 1.99103472089139 -36.79847743652244 -0.11366668748624316 
1.89136 0.9860079093824383 0.028836499999999998 -3.368929976736494 0.02490819912904895 -86.43680209750923 0.4999689934712871 -2.6663199427615067 0.06402000342076421 1.877910139649877 14.612100314069664 13.63449960703397 -4.256707506327585 -34.76296836573733 -0.12326922642798029 0.6652399879525848 10.250399566707467 -0.28829300007783526 0.5263580162990131 -2.0652598807057996 -0.20186399976390546 76.39807009318046 -11.100548090057076 4.194773912254848 6.243410179737895 28.53789980524186 13.56710015407793 -73.03000136060963 -4.509956833486495 -2.815242826103526 -3.783249892119702 33.92009911649566 -16.040999794098425 0.08097019840342189 0.1251590010331053 -4.428910235681946 1.3549201003027678 12.693000718630024 -15.345399668645987 1.9861063125184029 -36.8595734786482 -0.11375741427637061 
1.8906200000000002 0.9857579093824382 0.0281885 -3.474660024427822 0.049352899219782455 -86.33210212772211 0.5311629476584113 -2.6296499377681775 -0.11643499517336106 1.9340000800008448 14.829199584385812 13.704800182839973 -4.223870518119102 -34.85686980644667 -0.1234100990796118 0.5444830438395527 10.163300140637817 -0.31402301637236085 0.7631219348441566 -1.8941499816186402 -0.26518502937265404 76.50303644034523 -10.313397816517078 4.231383299319293 6.062169829451136 27.703899556637452 14.09389983815632 -72.94482890165956 -5.839146650690472 -2.7817983779457354 -4.386930185495755 35.31989857556559 -15.0151992958636 0.17228799999728087 0.29749900118152817 -4.429679912624042 1.351220058763325 12.692499553499674 -15.448900940233775 1.9810903923466747 -36.94217437137575 -0.11388065116612174 
1.89011 0.9855579093824383 0.027685 -3.5733799501531895 0.04810699667595676 -86.20350332602911 0.5580430504152908 -2.599230196195645 -0.2263049779351498 1.94689014106854 15.011698823913967 13.682999926556585 -4.230281504428805 -34.94736639785475 -0.1245010883973891 0.4319840118764776 10.150100800066767 -0.3325350168180639 0.9457460921289295 -1.7852500858221916 -0.3137319862806948 76.57961652131941 -9.72690398664007 4.23301614141775 5.854760036246298 27.46380133183858 14.47530016273077 -72.8975571624139 -6.585965084068367 -2.6939762324845344 -4.66596988007381 36.35140057421008 -14.457101123687272 0.23490800140117757 0.4527619809401853 -4.426590105798257 1.331870026122973 12.683899491560982 -15.577200921150588 1.9737729118680638 -37.013874282187956 -0.11398799986192465 
1.8898599999999999 0.9854679093824381 0.0272991 -3.5945902488470183 0.04018430073891262 -86.13759883072765 0.5754519753100368 -2.6104500625678604 -0.2698700055347539 1.9489599018304653 15.0951005563217 13.658700674810618 -4.26377162947667 -34.99066638209805 -0.1277206954978303 0.5673629502594789 10.299099669263303 -0.3702860059692533 0.7315709965511934 -2.0296500491377034 -0.3047400155579466 76.7002240016835 -9.27919533182949 4.080679444151193 5.58605954052435 27.697899235451597 14.782199345159661 -72.79389538138062 -6.798331033289696 -2.428255833674828 -4.661260037754263 36.77090054774851 -14.365199220857457 0.26165899757448785 0.4915020134997043 -4.423200197535816 1.3284399904991573 12.697599997262381 -15.648999869705762 1.9732582998027857 -37.069376399383486 -0.11407138953477963 
1.88978 0.9854579093824383 0.0269548 -3.558889917272419 0.027545699355411853 -86.13259913225521 0.5733859498078137 -2.640210050555252 -0.29656299846097195 1.9606198885173234 15.0858985839624 13.683700874720156 -4.277523361596845 -34.97596439990959 -0.12954036728247012 0.9117140342591062 10.623999815249762 -0.44511499719497427 0.18329599710309355 -2.650200055990042 -0.2685979895235448 76.89918741220596 -9.048252121839372 3.8025370656753488 5.412739648353869 27.975000010079015 14.935899092052459 -72.60297793370043 -6.682292522593526 -1.9491039761332702 -4.547209965880214 36.55239938110522 -14.536099091627639 0.26601500407851636 0.4408850290254736 -4.417730069784282 1.3317099435643007 12.737400363329693 -15.665998503002632 1.9978341742101378 -37.11187725149389 -0.11413539587782205 
1.88989 0.9854779093824382 0.0266113 -3.536119987570301 0.004071629843707323 -86.10329762071585 0.5694750261777467 -2.652910146986656 -0.29792700858256466 1.9611799640292644 15.038599523960062 13.658099618163657 -4.2678249198622495 -34.929563509783115 -0.13087210742827718 1.119570030915817 10.902200250333552 -0.515207945922379 -0.16253200858284322 -3.151109908019498 -0.2713490082943261 77.08281021785258 -9.239079069513066 3.6504402788033894 5.425500149270745 28.362200019032453 14.799098940713565 -72.48275294392987 -6.4138665150988485 -1.5257456927657254 -4.404260082967371 36.0414021934453 -14.80640041293631 0.2711439958975199 0.40198101856502144 -4.403360205544221 1.3176999449161353 12.760000605519618 -15.717600582182078 2.0381325037566245 -37.126275290264275 -0.11415702036345603 
1.89019 0.9855079093824384 0.026249400000000003 -3.552890022973386 -0.02452239849512236 -86.00320119842931 0.5843400257717803 -2.643900060254351 -0.2540250071969557 1.941209985000028 14.989200180787945 13.507000465797342 -4.266439245234384 -34.87846344950766 -0.13183744527771005 0.9729829655482363 10.89559972627438 -0.523582985144431 0.06052049863659131 -3.0824897721927305 -0.32469099812355384 77.13046444769176 -9.79996566641805 3.765769730486347 5.514570084915943 29.05260237052651 14.458701095500347 -72.57390181840368 -6.0981196763738525 -1.454853238379459 -4.205770089931745 35.64220154212015 -15.121400199720835 0.2773630165389488 0.4197550117348194 -4.399160066091486 1.3129400501165769 12.738099603945972 -15.831799637557397 2.0495952687311987 -37.11037802497107 -0.11413304800029486 
1.8905600000000002 0.9855379093824383 0.025872799999999998 -3.588600172944917 -0.05211359965031013 -85.87169956633906 0.5998729965223001 -2.620960016153217 -0.21189399915793694 1.9311098427648716 14.937000460056122 13.319599711766056 -4.289541933215129 -34.82856208743155 -0.13252199831923192 0.6805709878749131 10.691099593655968 -0.48863200002697665 0.542035007991485 -2.651689891002751 -0.3863429802951599 77.05769561227444 -10.356099305434352 3.9477148709180856 5.613119896242295 29.556100010477756 14.151900097040777 -72.77307013460126 -5.764160138227018 -1.6715080127910271 -3.9803700053399163 35.40790214792661 -15.435600854372469 0.25823501840747515 0.4644500354356639 -4.446319960989485 1.3645699836612322 12.70370020996485 -15.929700154025776 2.010173124389177 -37.100573288417515 -0.11411834708532347 
1.8909200000000002 0.9855379093824383 0.025530900000000002 -3.623589951402423 -0.0836002948114462 -85.76189744524193 0.5867669840829562 -2.5944599493906257 -0.22649801082048202 1.9501901896547138 14.887401333850782 13.211599906836168 -4.331279084798961 -34.78476008428426 -0.1330138653209654 0.571851024874412 10.543500913239285 -0.48033502773270365 0.7309169525773118 -2.3359298187862385 -0.41789800069336924 76.99338938123877 -10.622735376479664 3.970927695699197 5.7953600154688125 29.316097408327263 13.956699266977335 -72.88827493533186 -5.45372974799723 -1.902015371334733 -3.839719761743252 35.19430164201281 -15.65200003029869 0.20619899543210823 0.4936529894797294 -4.538279920427245 1.4537899700247583 12.70659962526752 -15.961100241187617 1.9618518838888643 -37.1269753846542 -0.11415808758051384 
1.89137 0.9854979093824383 0.025288599999999998 -3.6477799201216694 -0.11699500398423598 -85.69059710049618 0.5547259797170446 -2.598089981491076 -0.28504001576391086 1.9748298836421232 14.879299021947855 13.187200763573589 -4.386497322257106 -34.766561045240756 -0.1334199280712506 0.6626579630029085 10.516199793353097 -0.5173719953113622 0.5770579768994889 -2.232290022424346 -0.4253390115464221 77.00756885395572 -10.689751485068536 3.9105014389989172 6.027949727935726 28.881099735562078 13.77519979638894 -72.91330757863996 -5.18651609908023 -2.0399181713377597 -3.798710025306026 34.92160292430546 -15.769299991557196 0.15471500382010908 0.477590038738299 -4.609389873649894 1.5120000437827805 12.761499832042436 -15.972300043879146 1.960735788289802 -37.17167555767735 -0.11422561573984705 
1.89201 0.9854279093824381 0.025162300000000002 -3.65231004308868 -0.13250300185560282 -85.6554011357031 0.5367640229429391 -2.6656700075732975 -0.3533730168412737 1.9838899161327337 14.94620072486813 13.208500708500274 -4.44668921809149 -34.788161518490924 -0.13384109194290386 0.7408589866053529 10.545999908701862 -0.5543589637708622 0.4599710321657222 -2.226229937083252 -0.43859699569479865 77.02137266626832 -10.820692187873204 3.9038266366325223 6.119809795856874 29.26959748045782 13.55480069093003 -72.96432909173996 -4.8283461016466385 -2.1189662984798447 -3.7093101061465523 34.488999232844364 -15.976601355508961 0.13621799777406832 0.4065590062170754 -4.622920051508866 1.5223199260101408 12.846799503265787 -16.00360109329802 2.0018108384109663 -37.20227822025359 -0.11427195964058265 
